<mxfile host="Electron" agent="Mozilla/5.0 (Windows NT 10.0; Win64; x64) AppleWebKit/537.36 (KHTML, like Gecko) draw.io/24.7.8 Chrome/128.0.6613.36 Electron/32.0.1 Safari/537.36" version="24.7.8">
  <diagram name="Page-1" id="8YA2dCOL3-Opxpk1j5PP">
    <mxGraphModel dx="1036" dy="654" grid="1" gridSize="10" guides="1" tooltips="1" connect="1" arrows="1" fold="1" page="1" pageScale="1" pageWidth="850" pageHeight="1100" math="0" shadow="0">
      <root>
        <mxCell id="0" />
        <mxCell id="1" parent="0" />
        <mxCell id="oSdUN21Y7AjLXys4Wp6H-28" style="edgeStyle=orthogonalEdgeStyle;rounded=0;orthogonalLoop=1;jettySize=auto;html=1;exitX=0.617;exitY=0.001;exitDx=0;exitDy=0;exitPerimeter=0;entryX=0.005;entryY=0.184;entryDx=0;entryDy=0;entryPerimeter=0;" parent="1" source="p7U9RObmF5ZfVnRHKtvr-1" target="oSdUN21Y7AjLXys4Wp6H-13" edge="1">
          <mxGeometry relative="1" as="geometry">
            <mxPoint x="240" y="430" as="targetPoint" />
          </mxGeometry>
        </mxCell>
        <mxCell id="UtDjivSvUU0SNbdQqQrx-4" style="edgeStyle=orthogonalEdgeStyle;rounded=0;orthogonalLoop=1;jettySize=auto;html=1;entryX=0.25;entryY=1;entryDx=0;entryDy=0;" parent="1" source="p7U9RObmF5ZfVnRHKtvr-1" target="oSdUN21Y7AjLXys4Wp6H-23" edge="1">
          <mxGeometry relative="1" as="geometry">
            <Array as="points">
              <mxPoint x="80" y="640" />
              <mxPoint x="80" y="480" />
              <mxPoint x="170" y="480" />
            </Array>
          </mxGeometry>
        </mxCell>
        <mxCell id="p7U9RObmF5ZfVnRHKtvr-1" value="USER" style="swimlane;fontStyle=1;align=center;verticalAlign=top;childLayout=stackLayout;horizontal=1;startSize=26;horizontalStack=0;resizeParent=1;resizeParentMax=0;resizeLast=0;collapsible=1;marginBottom=0;whiteSpace=wrap;html=1;fillColor=#fff2cc;strokeColor=#d6b656;" parent="1" vertex="1">
          <mxGeometry x="130" y="570" width="160" height="140" as="geometry" />
        </mxCell>
        <mxCell id="p7U9RObmF5ZfVnRHKtvr-2" value="- userID: String&lt;div&gt;- userName : String&lt;/div&gt;&lt;div&gt;- email: String&lt;/div&gt;&lt;div&gt;- password : String&amp;nbsp;&lt;/div&gt;" style="text;strokeColor=none;fillColor=none;align=left;verticalAlign=top;spacingLeft=4;spacingRight=4;overflow=hidden;rotatable=0;points=[[0,0.5],[1,0.5]];portConstraint=eastwest;whiteSpace=wrap;html=1;" parent="p7U9RObmF5ZfVnRHKtvr-1" vertex="1">
          <mxGeometry y="26" width="160" height="64" as="geometry" />
        </mxCell>
        <mxCell id="p7U9RObmF5ZfVnRHKtvr-3" value="" style="line;strokeWidth=1;fillColor=none;align=left;verticalAlign=middle;spacingTop=-1;spacingLeft=3;spacingRight=3;rotatable=0;labelPosition=right;points=[];portConstraint=eastwest;strokeColor=inherit;" parent="p7U9RObmF5ZfVnRHKtvr-1" vertex="1">
          <mxGeometry y="90" width="160" height="8" as="geometry" />
        </mxCell>
        <mxCell id="p7U9RObmF5ZfVnRHKtvr-4" value="+ register(): void&lt;div&gt;+ login(): void&lt;/div&gt;" style="text;strokeColor=none;fillColor=none;align=left;verticalAlign=top;spacingLeft=4;spacingRight=4;overflow=hidden;rotatable=0;points=[[0,0.5],[1,0.5]];portConstraint=eastwest;whiteSpace=wrap;html=1;" parent="p7U9RObmF5ZfVnRHKtvr-1" vertex="1">
          <mxGeometry y="98" width="160" height="42" as="geometry" />
        </mxCell>
        <mxCell id="p7U9RObmF5ZfVnRHKtvr-5" value="STUDENT" style="swimlane;fontStyle=1;align=center;verticalAlign=top;childLayout=stackLayout;horizontal=1;startSize=26;horizontalStack=0;resizeParent=1;resizeParentMax=0;resizeLast=0;collapsible=1;marginBottom=0;whiteSpace=wrap;html=1;fillColor=#fff2cc;strokeColor=#d6b656;" parent="1" vertex="1">
          <mxGeometry x="120" y="870" width="160" height="58" as="geometry" />
        </mxCell>
        <mxCell id="p7U9RObmF5ZfVnRHKtvr-6" value="- program : String" style="text;strokeColor=none;fillColor=none;align=left;verticalAlign=top;spacingLeft=4;spacingRight=4;overflow=hidden;rotatable=0;points=[[0,0.5],[1,0.5]];portConstraint=eastwest;whiteSpace=wrap;html=1;" parent="p7U9RObmF5ZfVnRHKtvr-5" vertex="1">
          <mxGeometry y="26" width="160" height="24" as="geometry" />
        </mxCell>
        <mxCell id="p7U9RObmF5ZfVnRHKtvr-7" value="" style="line;strokeWidth=1;fillColor=none;align=left;verticalAlign=middle;spacingTop=-1;spacingLeft=3;spacingRight=3;rotatable=0;labelPosition=right;points=[];portConstraint=eastwest;strokeColor=inherit;" parent="p7U9RObmF5ZfVnRHKtvr-5" vertex="1">
          <mxGeometry y="50" width="160" height="8" as="geometry" />
        </mxCell>
        <mxCell id="p7U9RObmF5ZfVnRHKtvr-9" value="TEACHER" style="swimlane;fontStyle=1;align=center;verticalAlign=top;childLayout=stackLayout;horizontal=1;startSize=26;horizontalStack=0;resizeParent=1;resizeParentMax=0;resizeLast=0;collapsible=1;marginBottom=0;whiteSpace=wrap;html=1;fillColor=#fff2cc;strokeColor=#d6b656;" parent="1" vertex="1">
          <mxGeometry x="220" y="802" width="160" height="58" as="geometry" />
        </mxCell>
        <mxCell id="p7U9RObmF5ZfVnRHKtvr-10" value="- department : String" style="text;strokeColor=none;fillColor=none;align=left;verticalAlign=top;spacingLeft=4;spacingRight=4;overflow=hidden;rotatable=0;points=[[0,0.5],[1,0.5]];portConstraint=eastwest;whiteSpace=wrap;html=1;" parent="p7U9RObmF5ZfVnRHKtvr-9" vertex="1">
          <mxGeometry y="26" width="160" height="24" as="geometry" />
        </mxCell>
        <mxCell id="p7U9RObmF5ZfVnRHKtvr-11" value="" style="line;strokeWidth=1;fillColor=none;align=left;verticalAlign=middle;spacingTop=-1;spacingLeft=3;spacingRight=3;rotatable=0;labelPosition=right;points=[];portConstraint=eastwest;strokeColor=inherit;" parent="p7U9RObmF5ZfVnRHKtvr-9" vertex="1">
          <mxGeometry y="50" width="160" height="8" as="geometry" />
        </mxCell>
        <mxCell id="p7U9RObmF5ZfVnRHKtvr-17" value="OFFICE STUFF" style="swimlane;fontStyle=1;align=center;verticalAlign=top;childLayout=stackLayout;horizontal=1;startSize=26;horizontalStack=0;resizeParent=1;resizeParentMax=0;resizeLast=0;collapsible=1;marginBottom=0;whiteSpace=wrap;html=1;fillColor=#ffe6cc;strokeColor=#d79b00;" parent="1" vertex="1">
          <mxGeometry x="30" y="802" width="160" height="58" as="geometry" />
        </mxCell>
        <mxCell id="p7U9RObmF5ZfVnRHKtvr-18" value="- office : String" style="text;strokeColor=none;fillColor=none;align=left;verticalAlign=top;spacingLeft=4;spacingRight=4;overflow=hidden;rotatable=0;points=[[0,0.5],[1,0.5]];portConstraint=eastwest;whiteSpace=wrap;html=1;" parent="p7U9RObmF5ZfVnRHKtvr-17" vertex="1">
          <mxGeometry y="26" width="160" height="24" as="geometry" />
        </mxCell>
        <mxCell id="p7U9RObmF5ZfVnRHKtvr-19" value="" style="line;strokeWidth=1;fillColor=none;align=left;verticalAlign=middle;spacingTop=-1;spacingLeft=3;spacingRight=3;rotatable=0;labelPosition=right;points=[];portConstraint=eastwest;strokeColor=inherit;" parent="p7U9RObmF5ZfVnRHKtvr-17" vertex="1">
          <mxGeometry y="50" width="160" height="8" as="geometry" />
        </mxCell>
        <mxCell id="oSdUN21Y7AjLXys4Wp6H-2" value="" style="edgeStyle=none;html=1;endArrow=block;endFill=0;endSize=12;verticalAlign=bottom;rounded=0;exitX=0.25;exitY=0;exitDx=0;exitDy=0;entryX=0.755;entryY=0.995;entryDx=0;entryDy=0;entryPerimeter=0;fillColor=#f8cecc;strokeColor=#b85450;" parent="1" source="p7U9RObmF5ZfVnRHKtvr-9" target="p7U9RObmF5ZfVnRHKtvr-4" edge="1">
          <mxGeometry width="160" relative="1" as="geometry">
            <mxPoint x="330" y="750" as="sourcePoint" />
            <mxPoint x="490" y="750" as="targetPoint" />
          </mxGeometry>
        </mxCell>
        <mxCell id="oSdUN21Y7AjLXys4Wp6H-3" value="" style="edgeStyle=none;html=1;endArrow=block;endFill=0;endSize=12;verticalAlign=bottom;rounded=0;entryX=0.632;entryY=1.024;entryDx=0;entryDy=0;fillColor=#f8cecc;strokeColor=#b85450;entryPerimeter=0;exitX=0.5;exitY=0;exitDx=0;exitDy=0;" parent="1" source="p7U9RObmF5ZfVnRHKtvr-5" target="p7U9RObmF5ZfVnRHKtvr-4" edge="1">
          <mxGeometry width="160" relative="1" as="geometry">
            <mxPoint x="240" y="870" as="sourcePoint" />
            <mxPoint x="600" y="800" as="targetPoint" />
          </mxGeometry>
        </mxCell>
        <mxCell id="oSdUN21Y7AjLXys4Wp6H-1" value="" style="edgeStyle=none;html=1;endArrow=block;endFill=0;endSize=12;verticalAlign=bottom;rounded=0;exitX=0.75;exitY=0;exitDx=0;exitDy=0;fillColor=#f8cecc;strokeColor=#b85450;" parent="1" source="p7U9RObmF5ZfVnRHKtvr-17" target="p7U9RObmF5ZfVnRHKtvr-4" edge="1">
          <mxGeometry width="160" relative="1" as="geometry">
            <mxPoint x="140" y="800" as="sourcePoint" />
            <mxPoint x="300" y="800" as="targetPoint" />
          </mxGeometry>
        </mxCell>
        <mxCell id="oSdUN21Y7AjLXys4Wp6H-4" value="ADMIN" style="swimlane;fontStyle=1;align=center;verticalAlign=top;childLayout=stackLayout;horizontal=1;startSize=26;horizontalStack=0;resizeParent=1;resizeParentMax=0;resizeLast=0;collapsible=1;marginBottom=0;whiteSpace=wrap;html=1;fillColor=#dae8fc;strokeColor=#6c8ebf;" parent="1" vertex="1">
          <mxGeometry x="600" y="330" width="160" height="130" as="geometry" />
        </mxCell>
        <mxCell id="oSdUN21Y7AjLXys4Wp6H-5" value="- adminID: String&lt;div&gt;- password : String&amp;nbsp;&lt;/div&gt;" style="text;strokeColor=none;fillColor=none;align=left;verticalAlign=top;spacingLeft=4;spacingRight=4;overflow=hidden;rotatable=0;points=[[0,0.5],[1,0.5]];portConstraint=eastwest;whiteSpace=wrap;html=1;" parent="oSdUN21Y7AjLXys4Wp6H-4" vertex="1">
          <mxGeometry y="26" width="160" height="44" as="geometry" />
        </mxCell>
        <mxCell id="oSdUN21Y7AjLXys4Wp6H-6" value="" style="line;strokeWidth=1;fillColor=none;align=left;verticalAlign=middle;spacingTop=-1;spacingLeft=3;spacingRight=3;rotatable=0;labelPosition=right;points=[];portConstraint=eastwest;strokeColor=inherit;" parent="oSdUN21Y7AjLXys4Wp6H-4" vertex="1">
          <mxGeometry y="70" width="160" height="8" as="geometry" />
        </mxCell>
        <mxCell id="oSdUN21Y7AjLXys4Wp6H-7" value="+manageResources(): void&lt;div&gt;+ approveReject(): void&lt;/div&gt;&lt;div&gt;+ solveissue(): void&lt;/div&gt;" style="text;strokeColor=none;fillColor=none;align=left;verticalAlign=top;spacingLeft=4;spacingRight=4;overflow=hidden;rotatable=0;points=[[0,0.5],[1,0.5]];portConstraint=eastwest;whiteSpace=wrap;html=1;" parent="oSdUN21Y7AjLXys4Wp6H-4" vertex="1">
          <mxGeometry y="78" width="160" height="52" as="geometry" />
        </mxCell>
        <mxCell id="oSdUN21Y7AjLXys4Wp6H-12" value="RESOURCES" style="swimlane;fontStyle=1;align=center;verticalAlign=top;childLayout=stackLayout;horizontal=1;startSize=26;horizontalStack=0;resizeParent=1;resizeParentMax=0;resizeLast=0;collapsible=1;marginBottom=0;whiteSpace=wrap;html=1;fillColor=#ffe6cc;strokeColor=#d79b00;" parent="1" vertex="1">
          <mxGeometry x="320" y="442" width="160" height="98" as="geometry" />
        </mxCell>
        <mxCell id="oSdUN21Y7AjLXys4Wp6H-13" value="- resourceID: String&lt;div&gt;- resourceName: String&lt;/div&gt;&lt;div&gt;- capacity: int&lt;/div&gt;&lt;div&gt;- status: String&lt;/div&gt;" style="text;strokeColor=none;fillColor=none;align=left;verticalAlign=top;spacingLeft=4;spacingRight=4;overflow=hidden;rotatable=0;points=[[0,0.5],[1,0.5]];portConstraint=eastwest;whiteSpace=wrap;html=1;" parent="oSdUN21Y7AjLXys4Wp6H-12" vertex="1">
          <mxGeometry y="26" width="160" height="64" as="geometry" />
        </mxCell>
        <mxCell id="oSdUN21Y7AjLXys4Wp6H-14" value="" style="line;strokeWidth=1;fillColor=none;align=left;verticalAlign=middle;spacingTop=-1;spacingLeft=3;spacingRight=3;rotatable=0;labelPosition=right;points=[];portConstraint=eastwest;strokeColor=inherit;" parent="oSdUN21Y7AjLXys4Wp6H-12" vertex="1">
          <mxGeometry y="90" width="160" height="8" as="geometry" />
        </mxCell>
        <mxCell id="oSdUN21Y7AjLXys4Wp6H-23" value="ISSUEREPORT" style="swimlane;fontStyle=1;align=center;verticalAlign=top;childLayout=stackLayout;horizontal=1;startSize=26;horizontalStack=0;resizeParent=1;resizeParentMax=0;resizeLast=0;collapsible=1;marginBottom=0;whiteSpace=wrap;html=1;fillColor=#d5e8d4;strokeColor=#82b366;" parent="1" vertex="1">
          <mxGeometry x="130" y="292" width="160" height="98" as="geometry" />
        </mxCell>
        <mxCell id="oSdUN21Y7AjLXys4Wp6H-24" value="- resourceID: String&lt;div&gt;- resourceName: String&lt;/div&gt;&lt;div&gt;- capacity: int&lt;/div&gt;&lt;div&gt;- status: String&lt;/div&gt;" style="text;strokeColor=none;fillColor=none;align=left;verticalAlign=top;spacingLeft=4;spacingRight=4;overflow=hidden;rotatable=0;points=[[0,0.5],[1,0.5]];portConstraint=eastwest;whiteSpace=wrap;html=1;" parent="oSdUN21Y7AjLXys4Wp6H-23" vertex="1">
          <mxGeometry y="26" width="160" height="64" as="geometry" />
        </mxCell>
        <mxCell id="oSdUN21Y7AjLXys4Wp6H-25" value="" style="line;strokeWidth=1;fillColor=none;align=left;verticalAlign=middle;spacingTop=-1;spacingLeft=3;spacingRight=3;rotatable=0;labelPosition=right;points=[];portConstraint=eastwest;strokeColor=inherit;" parent="oSdUN21Y7AjLXys4Wp6H-23" vertex="1">
          <mxGeometry y="90" width="160" height="8" as="geometry" />
        </mxCell>
        <mxCell id="oSdUN21Y7AjLXys4Wp6H-29" value="Browse Resources" style="text;html=1;align=center;verticalAlign=middle;resizable=0;points=[];autosize=1;strokeColor=none;fillColor=none;rotation=-90;" parent="1" vertex="1">
          <mxGeometry x="160" y="488" width="120" height="30" as="geometry" />
        </mxCell>
        <mxCell id="oSdUN21Y7AjLXys4Wp6H-31" style="edgeStyle=orthogonalEdgeStyle;rounded=0;orthogonalLoop=1;jettySize=auto;html=1;exitX=0;exitY=0.5;exitDx=0;exitDy=0;entryX=0.995;entryY=0.359;entryDx=0;entryDy=0;entryPerimeter=0;" parent="1" source="oSdUN21Y7AjLXys4Wp6H-5" target="oSdUN21Y7AjLXys4Wp6H-13" edge="1">
          <mxGeometry relative="1" as="geometry" />
        </mxCell>
        <mxCell id="oSdUN21Y7AjLXys4Wp6H-32" value="Manage Resources" style="text;html=1;align=center;verticalAlign=middle;resizable=0;points=[];autosize=1;strokeColor=none;fillColor=none;rotation=-90;" parent="1" vertex="1">
          <mxGeometry x="457" y="413" width="130" height="30" as="geometry" />
        </mxCell>
        <mxCell id="oSdUN21Y7AjLXys4Wp6H-33" style="edgeStyle=orthogonalEdgeStyle;rounded=0;orthogonalLoop=1;jettySize=auto;html=1;exitX=0;exitY=0.5;exitDx=0;exitDy=0;entryX=0.5;entryY=0;entryDx=0;entryDy=0;" parent="1" source="oSdUN21Y7AjLXys4Wp6H-7" target="UtDjivSvUU0SNbdQqQrx-8" edge="1">
          <mxGeometry relative="1" as="geometry">
            <mxPoint x="680" y="570" as="targetPoint" />
          </mxGeometry>
        </mxCell>
        <mxCell id="oSdUN21Y7AjLXys4Wp6H-34" value="Approve/Reject Booking" style="text;html=1;align=center;verticalAlign=middle;resizable=0;points=[];autosize=1;strokeColor=none;fillColor=none;" parent="1" vertex="1">
          <mxGeometry x="580" y="488" width="150" height="30" as="geometry" />
        </mxCell>
        <mxCell id="oSdUN21Y7AjLXys4Wp6H-36" value="1 . . *" style="text;html=1;align=center;verticalAlign=middle;resizable=0;points=[];autosize=1;strokeColor=none;fillColor=none;" parent="1" vertex="1">
          <mxGeometry x="230" y="540" width="50" height="30" as="geometry" />
        </mxCell>
        <mxCell id="oSdUN21Y7AjLXys4Wp6H-37" value="0 . . *" style="text;html=1;align=center;verticalAlign=middle;resizable=0;points=[];autosize=1;strokeColor=none;fillColor=none;" parent="1" vertex="1">
          <mxGeometry x="275" y="458" width="50" height="30" as="geometry" />
        </mxCell>
        <mxCell id="oSdUN21Y7AjLXys4Wp6H-38" style="edgeStyle=orthogonalEdgeStyle;rounded=0;orthogonalLoop=1;jettySize=auto;html=1;exitX=0;exitY=0.5;exitDx=0;exitDy=0;entryX=1.013;entryY=0.403;entryDx=0;entryDy=0;entryPerimeter=0;" parent="1" source="oSdUN21Y7AjLXys4Wp6H-5" target="oSdUN21Y7AjLXys4Wp6H-24" edge="1">
          <mxGeometry relative="1" as="geometry">
            <Array as="points">
              <mxPoint x="600" y="350" />
              <mxPoint x="493" y="350" />
              <mxPoint x="493" y="330" />
              <mxPoint x="310" y="330" />
              <mxPoint x="310" y="344" />
            </Array>
          </mxGeometry>
        </mxCell>
        <mxCell id="oSdUN21Y7AjLXys4Wp6H-39" value="solve issue" style="text;html=1;align=center;verticalAlign=middle;resizable=0;points=[];autosize=1;strokeColor=none;fillColor=none;" parent="1" vertex="1">
          <mxGeometry x="367" y="300" width="80" height="30" as="geometry" />
        </mxCell>
        <mxCell id="oSdUN21Y7AjLXys4Wp6H-40" value="1 . . *" style="text;html=1;align=center;verticalAlign=middle;resizable=0;points=[];autosize=1;strokeColor=none;fillColor=none;" parent="1" vertex="1">
          <mxGeometry x="550" y="380" width="50" height="30" as="geometry" />
        </mxCell>
        <mxCell id="oSdUN21Y7AjLXys4Wp6H-41" value="0 . . *" style="text;html=1;align=center;verticalAlign=middle;resizable=0;points=[];autosize=1;strokeColor=none;fillColor=none;" parent="1" vertex="1">
          <mxGeometry x="480" y="488" width="50" height="30" as="geometry" />
        </mxCell>
        <mxCell id="oSdUN21Y7AjLXys4Wp6H-42" value="1 . . *" style="text;html=1;align=center;verticalAlign=middle;resizable=0;points=[];autosize=1;strokeColor=none;fillColor=none;" parent="1" vertex="1">
          <mxGeometry x="537" y="437" width="50" height="30" as="geometry" />
        </mxCell>
        <mxCell id="oSdUN21Y7AjLXys4Wp6H-43" value="0 . . *" style="text;html=1;align=center;verticalAlign=middle;resizable=0;points=[];autosize=1;strokeColor=none;fillColor=none;" parent="1" vertex="1">
          <mxGeometry x="680" y="540" width="50" height="30" as="geometry" />
        </mxCell>
        <mxCell id="oSdUN21Y7AjLXys4Wp6H-45" value="report issue" style="text;html=1;align=center;verticalAlign=middle;resizable=0;points=[];autosize=1;strokeColor=none;fillColor=none;" parent="1" vertex="1">
          <mxGeometry x="70" y="488" width="90" height="30" as="geometry" />
        </mxCell>
        <mxCell id="oSdUN21Y7AjLXys4Wp6H-46" value="1 . . *" style="text;html=1;align=center;verticalAlign=middle;resizable=0;points=[];autosize=1;strokeColor=none;fillColor=none;" parent="1" vertex="1">
          <mxGeometry x="290" y="600" width="50" height="30" as="geometry" />
        </mxCell>
        <mxCell id="oSdUN21Y7AjLXys4Wp6H-47" value="0 . . *" style="text;html=1;align=center;verticalAlign=middle;resizable=0;points=[];autosize=1;strokeColor=none;fillColor=none;" parent="1" vertex="1">
          <mxGeometry x="550" y="610" width="50" height="30" as="geometry" />
        </mxCell>
        <mxCell id="oSdUN21Y7AjLXys4Wp6H-48" value="1 . . *" style="text;html=1;align=center;verticalAlign=middle;resizable=0;points=[];autosize=1;strokeColor=none;fillColor=none;" parent="1" vertex="1">
          <mxGeometry x="550" y="350" width="50" height="30" as="geometry" />
        </mxCell>
        <mxCell id="oSdUN21Y7AjLXys4Wp6H-49" value="0 . . *" style="text;html=1;align=center;verticalAlign=middle;resizable=0;points=[];autosize=1;strokeColor=none;fillColor=none;" parent="1" vertex="1">
          <mxGeometry x="290" y="340" width="50" height="30" as="geometry" />
        </mxCell>
        <mxCell id="eHWKMEwsB4i4n82-E_wj-1" value="SYSTEM" style="swimlane;fontStyle=1;align=center;verticalAlign=top;childLayout=stackLayout;horizontal=1;startSize=26;horizontalStack=0;resizeParent=1;resizeParentMax=0;resizeLast=0;collapsible=1;marginBottom=0;whiteSpace=wrap;html=1;fillColor=#60a917;strokeColor=#2D7600;fontColor=#ffffff;" parent="1" vertex="1">
          <mxGeometry x="600" y="790" width="160" height="90" as="geometry" />
        </mxCell>
        <mxCell id="eHWKMEwsB4i4n82-E_wj-3" value="" style="line;strokeWidth=1;fillColor=none;align=left;verticalAlign=middle;spacingTop=-1;spacingLeft=3;spacingRight=3;rotatable=0;labelPosition=right;points=[];portConstraint=eastwest;strokeColor=inherit;" parent="eHWKMEwsB4i4n82-E_wj-1" vertex="1">
          <mxGeometry y="26" width="160" height="8" as="geometry" />
        </mxCell>
        <mxCell id="eHWKMEwsB4i4n82-E_wj-4" value="+ checkCredential(): void&lt;div&gt;+ generateReport(): void&lt;/div&gt;&lt;div&gt;+ sendNotification(): void&lt;/div&gt;" style="text;strokeColor=none;fillColor=none;align=left;verticalAlign=top;spacingLeft=4;spacingRight=4;overflow=hidden;rotatable=0;points=[[0,0.5],[1,0.5]];portConstraint=eastwest;whiteSpace=wrap;html=1;" parent="eHWKMEwsB4i4n82-E_wj-1" vertex="1">
          <mxGeometry y="34" width="160" height="56" as="geometry" />
        </mxCell>
        <mxCell id="eHWKMEwsB4i4n82-E_wj-5" style="edgeStyle=orthogonalEdgeStyle;rounded=0;orthogonalLoop=1;jettySize=auto;html=1;entryX=0;entryY=0.5;entryDx=0;entryDy=0;" parent="1" source="p7U9RObmF5ZfVnRHKtvr-4" edge="1">
          <mxGeometry relative="1" as="geometry">
            <Array as="points">
              <mxPoint x="435" y="689" />
              <mxPoint x="435" y="730" />
              <mxPoint x="520" y="730" />
              <mxPoint x="520" y="840" />
              <mxPoint x="600" y="840" />
            </Array>
            <mxPoint x="600" y="848" as="targetPoint" />
          </mxGeometry>
        </mxCell>
        <mxCell id="eHWKMEwsB4i4n82-E_wj-6" value="Login" style="text;html=1;align=center;verticalAlign=middle;resizable=0;points=[];autosize=1;strokeColor=none;fillColor=none;" parent="1" vertex="1">
          <mxGeometry x="440" y="720" width="50" height="30" as="geometry" />
        </mxCell>
        <mxCell id="eHWKMEwsB4i4n82-E_wj-7" value="1 . . *" style="text;html=1;align=center;verticalAlign=middle;resizable=0;points=[];autosize=1;strokeColor=none;fillColor=none;" parent="1" vertex="1">
          <mxGeometry x="280" y="658" width="50" height="30" as="geometry" />
        </mxCell>
        <mxCell id="eHWKMEwsB4i4n82-E_wj-8" value="1" style="text;html=1;align=center;verticalAlign=middle;resizable=0;points=[];autosize=1;strokeColor=none;fillColor=none;" parent="1" vertex="1">
          <mxGeometry x="570" y="816" width="30" height="30" as="geometry" />
        </mxCell>
        <mxCell id="eHWKMEwsB4i4n82-E_wj-9" style="edgeStyle=orthogonalEdgeStyle;rounded=0;orthogonalLoop=1;jettySize=auto;html=1;entryX=1;entryY=0.762;entryDx=0;entryDy=0;entryPerimeter=0;" parent="1" source="eHWKMEwsB4i4n82-E_wj-4" target="p7U9RObmF5ZfVnRHKtvr-4" edge="1">
          <mxGeometry relative="1" as="geometry">
            <Array as="points">
              <mxPoint x="420" y="884" />
              <mxPoint x="420" y="700" />
            </Array>
          </mxGeometry>
        </mxCell>
        <mxCell id="eHWKMEwsB4i4n82-E_wj-10" value="send notification" style="text;html=1;align=center;verticalAlign=middle;resizable=0;points=[];autosize=1;strokeColor=none;fillColor=none;" parent="1" vertex="1">
          <mxGeometry x="417" y="850" width="110" height="30" as="geometry" />
        </mxCell>
        <mxCell id="eHWKMEwsB4i4n82-E_wj-11" value="1" style="text;html=1;align=center;verticalAlign=middle;resizable=0;points=[];autosize=1;strokeColor=none;fillColor=none;" parent="1" vertex="1">
          <mxGeometry x="570" y="884" width="30" height="30" as="geometry" />
        </mxCell>
        <mxCell id="eHWKMEwsB4i4n82-E_wj-12" value="1 . . *" style="text;html=1;align=center;verticalAlign=middle;resizable=0;points=[];autosize=1;strokeColor=none;fillColor=none;" parent="1" vertex="1">
          <mxGeometry x="290" y="700" width="50" height="30" as="geometry" />
        </mxCell>
        <mxCell id="eHWKMEwsB4i4n82-E_wj-13" style="edgeStyle=orthogonalEdgeStyle;rounded=0;orthogonalLoop=1;jettySize=auto;html=1;entryX=1;entryY=0.5;entryDx=0;entryDy=0;" parent="1" source="eHWKMEwsB4i4n82-E_wj-4" target="oSdUN21Y7AjLXys4Wp6H-5" edge="1">
          <mxGeometry relative="1" as="geometry">
            <Array as="points">
              <mxPoint x="880" y="884" />
              <mxPoint x="880" y="378" />
            </Array>
          </mxGeometry>
        </mxCell>
        <mxCell id="eHWKMEwsB4i4n82-E_wj-14" value="send&lt;div&gt;notification&lt;/div&gt;" style="text;html=1;align=center;verticalAlign=middle;resizable=0;points=[];autosize=1;strokeColor=none;fillColor=none;" parent="1" vertex="1">
          <mxGeometry x="810" y="648" width="80" height="40" as="geometry" />
        </mxCell>
        <mxCell id="eHWKMEwsB4i4n82-E_wj-15" value="1" style="text;html=1;align=center;verticalAlign=middle;resizable=0;points=[];autosize=1;strokeColor=none;fillColor=none;" parent="1" vertex="1">
          <mxGeometry x="760" y="884" width="30" height="30" as="geometry" />
        </mxCell>
        <mxCell id="eHWKMEwsB4i4n82-E_wj-16" value="1 . . *" style="text;html=1;align=center;verticalAlign=middle;resizable=0;points=[];autosize=1;strokeColor=none;fillColor=none;" parent="1" vertex="1">
          <mxGeometry x="760" y="380" width="50" height="30" as="geometry" />
        </mxCell>
        <mxCell id="eHWKMEwsB4i4n82-E_wj-17" style="edgeStyle=orthogonalEdgeStyle;rounded=0;orthogonalLoop=1;jettySize=auto;html=1;entryX=1;entryY=0.5;entryDx=0;entryDy=0;" parent="1" source="oSdUN21Y7AjLXys4Wp6H-7" edge="1">
          <mxGeometry relative="1" as="geometry">
            <Array as="points">
              <mxPoint x="820" y="434" />
              <mxPoint x="820" y="840" />
              <mxPoint x="760" y="840" />
            </Array>
            <mxPoint x="760" y="848" as="targetPoint" />
          </mxGeometry>
        </mxCell>
        <mxCell id="eHWKMEwsB4i4n82-E_wj-18" value="Login" style="text;html=1;align=center;verticalAlign=middle;resizable=0;points=[];autosize=1;strokeColor=none;fillColor=none;" parent="1" vertex="1">
          <mxGeometry x="770" y="614" width="50" height="30" as="geometry" />
        </mxCell>
        <mxCell id="eHWKMEwsB4i4n82-E_wj-19" value="1 . . *" style="text;html=1;align=center;verticalAlign=middle;resizable=0;points=[];autosize=1;strokeColor=none;fillColor=none;" parent="1" vertex="1">
          <mxGeometry x="760" y="430" width="50" height="30" as="geometry" />
        </mxCell>
        <mxCell id="eHWKMEwsB4i4n82-E_wj-20" value="1" style="text;html=1;align=center;verticalAlign=middle;resizable=0;points=[];autosize=1;strokeColor=none;fillColor=none;" parent="1" vertex="1">
          <mxGeometry x="760" y="816" width="30" height="30" as="geometry" />
        </mxCell>
        <mxCell id="UtDjivSvUU0SNbdQqQrx-3" style="edgeStyle=orthogonalEdgeStyle;rounded=0;orthogonalLoop=1;jettySize=auto;html=1;entryX=0.065;entryY=-0.026;entryDx=0;entryDy=0;entryPerimeter=0;" parent="1" source="p7U9RObmF5ZfVnRHKtvr-2" target="UtDjivSvUU0SNbdQqQrx-9" edge="1">
          <mxGeometry relative="1" as="geometry">
            <mxPoint x="598.4000000000001" y="607.76" as="targetPoint" />
            <Array as="points">
              <mxPoint x="445" y="628" />
              <mxPoint x="445" y="610" />
              <mxPoint x="610" y="610" />
            </Array>
          </mxGeometry>
        </mxCell>
        <mxCell id="UtDjivSvUU0SNbdQqQrx-6" value="Request" style="text;html=1;align=center;verticalAlign=middle;resizable=0;points=[];autosize=1;strokeColor=none;fillColor=none;" parent="1" vertex="1">
          <mxGeometry x="380" y="600" width="70" height="30" as="geometry" />
        </mxCell>
        <mxCell id="UtDjivSvUU0SNbdQqQrx-8" value="Booking" style="swimlane;fontStyle=1;align=center;verticalAlign=top;childLayout=stackLayout;horizontal=1;startSize=26;horizontalStack=0;resizeParent=1;resizeParentMax=0;resizeLast=0;collapsible=1;marginBottom=0;whiteSpace=wrap;html=1;fillColor=#fff2cc;strokeColor=#d6b656;" parent="1" vertex="1">
          <mxGeometry x="600" y="580" width="160" height="150" as="geometry" />
        </mxCell>
        <mxCell id="UtDjivSvUU0SNbdQqQrx-9" value="-bookingID: String&lt;div&gt;- bookingDate: Date&lt;/div&gt;&lt;div&gt;-startTime: Time&lt;/div&gt;&lt;div&gt;-endTime: Time&lt;/div&gt;&lt;div&gt;-purpose: String&lt;/div&gt;&lt;div&gt;-resourceID(): String[]&lt;/div&gt;" style="text;strokeColor=none;fillColor=none;align=left;verticalAlign=top;spacingLeft=4;spacingRight=4;overflow=hidden;rotatable=0;points=[[0,0.5],[1,0.5]];portConstraint=eastwest;whiteSpace=wrap;html=1;" parent="UtDjivSvUU0SNbdQqQrx-8" vertex="1">
          <mxGeometry y="26" width="160" height="94" as="geometry" />
        </mxCell>
        <mxCell id="UtDjivSvUU0SNbdQqQrx-10" value="" style="line;strokeWidth=1;fillColor=none;align=left;verticalAlign=middle;spacingTop=-1;spacingLeft=3;spacingRight=3;rotatable=0;labelPosition=right;points=[];portConstraint=eastwest;strokeColor=inherit;" parent="UtDjivSvUU0SNbdQqQrx-8" vertex="1">
          <mxGeometry y="120" width="160" height="8" as="geometry" />
        </mxCell>
        <mxCell id="UtDjivSvUU0SNbdQqQrx-11" value="+ sendBookingInfo()" style="text;strokeColor=none;fillColor=none;align=left;verticalAlign=top;spacingLeft=4;spacingRight=4;overflow=hidden;rotatable=0;points=[[0,0.5],[1,0.5]];portConstraint=eastwest;whiteSpace=wrap;html=1;" parent="UtDjivSvUU0SNbdQqQrx-8" vertex="1">
          <mxGeometry y="128" width="160" height="22" as="geometry" />
        </mxCell>
        <mxCell id="UtDjivSvUU0SNbdQqQrx-12" style="edgeStyle=orthogonalEdgeStyle;rounded=0;orthogonalLoop=1;jettySize=auto;html=1;entryX=0.204;entryY=-0.007;entryDx=0;entryDy=0;entryPerimeter=0;" parent="1" source="UtDjivSvUU0SNbdQqQrx-11" target="eHWKMEwsB4i4n82-E_wj-1" edge="1">
          <mxGeometry relative="1" as="geometry" />
        </mxCell>
        <mxCell id="UtDjivSvUU0SNbdQqQrx-13" value="Send Info" style="text;html=1;align=center;verticalAlign=middle;resizable=0;points=[];autosize=1;strokeColor=none;fillColor=none;" parent="1" vertex="1">
          <mxGeometry x="580" y="730" width="70" height="30" as="geometry" />
        </mxCell>
        <mxCell id="UtDjivSvUU0SNbdQqQrx-14" value="" style="endArrow=open;html=1;endSize=12;startArrow=diamondThin;startSize=14;startFill=0;edgeStyle=orthogonalEdgeStyle;align=left;verticalAlign=bottom;rounded=0;entryX=0.5;entryY=1;entryDx=0;entryDy=0;exitX=0.165;exitY=0.015;exitDx=0;exitDy=0;exitPerimeter=0;" parent="1" source="UtDjivSvUU0SNbdQqQrx-8" target="oSdUN21Y7AjLXys4Wp6H-12" edge="1">
          <mxGeometry x="-1" y="3" relative="1" as="geometry">
            <mxPoint x="450" y="570" as="sourcePoint" />
            <mxPoint x="610" y="570" as="targetPoint" />
            <Array as="points">
              <mxPoint x="626" y="560" />
              <mxPoint x="400" y="560" />
            </Array>
          </mxGeometry>
        </mxCell>
        <mxCell id="UtDjivSvUU0SNbdQqQrx-15" value="Includes" style="text;html=1;align=center;verticalAlign=middle;resizable=0;points=[];autosize=1;strokeColor=none;fillColor=none;" parent="1" vertex="1">
          <mxGeometry x="487" y="535" width="70" height="30" as="geometry" />
        </mxCell>
      </root>
    </mxGraphModel>
  </diagram>
</mxfile>
